<?xml version="1.0" encoding="UTF-8"?><svg id="a" xmlns="http://www.w3.org/2000/svg" width="48" height="48" viewBox="0 0 48 48"><path d="M47.5,23c0-.2-.2-.6-.3-1.1-.2-.7-.5-1.7-.8-2.5-.1-.4-.3-.8-.4-1,0,0,0-.1,0-.2.2-.2.4-.5.5-.7.2-.4.3-.9.3-1.3,0-.4-.1-.8-.3-1.1-.3-.5-.7-.8-1.1-1,0,0-.2,0-.3,0v-3.4c-.2-.4-.4-.8-.8-.9L22.7,3.7c-.2,0-.3,0-.5,0L1.1,9.4c-.4.1-.7.5-.7.9s.3.8.7.9l9,2.6v5.9c-.2,0-.4,0-.6,0-.2,0-.4,0-.6,0-.2,0-.3,0-.5.2-.3.1-.5.3-.7.5-.3.3-.5.7-.6,1,0,.3,0,.5-.1.7,0,.1,0,.2,0,.3,0,.3,0,.8,0,1.4,0,.5,0,1.2,0,1.8-.1,0-.3,0-.4,0-.6,0-1.1,0-1.5.2-.3.1-.7.3-.9.5-.4.3-.7.8-.8,1.3-.1.5-.2,1-.2,1.5,0,.4,0,.7,0,1.2,0,.5,0,1,0,1.4,0,.3,0,.6.2,1,0,.2.2.5.5.7.3.3.7.5,1.1.6.4,0,.8.1,1.4.1.2,0,.3,0,.5,0,0,1.6,0,3.6,0,5.2s0,1.3,0,1.8c0,.2,0,.4,0,.6v.2c0,0,0,.1,0,.3.1.4.3.8.6,1.2.3.4.7.6,1.1.7.2,0,.3,0,.4,0,.4,0,1.1,0,1.9.1.9,0,1.9,0,3.2,0,5.2,0,12.9-.1,17.5-.1,1.6,0,2.8,0,3.3,0h.2c.5,0,.9-.2,1.4-.5.4-.3.8-.7,1-1.2,0-.1,0-.3,0-.4,0-.3,0-.9,0-1.6,0-1.5,0-3.8,0-6.3.2,0,.5,0,.7,0,.6,0,1.1-.1,1.6-.4.7-.4,1.1-1.1,1.3-1.7.2-.7.3-1.3.3-2,0-.7,0-1.4-.2-1.9,0-.3-.1-.5-.2-.7v-.3c0,0-.1-.1-.1-.1v-.2c-.5-.5-1-.8-1.4-.9-.5-.1-.9-.2-1.3-.2-.2,0-.4,0-.5,0,0-.2,0-.5,0-.7,0-.8,0-1.5,0-2.1,0-.3,0-.5,0-.7v-.3c0,0,0-.2,0-.3-.1-.5-.4-1-.8-1.3-.6-.5-1.2-.7-1.8-.8-.2,0-.5,0-.7,0v-5.7l8.8-2.5v2.3c-.2,0-.5.2-.8.4-.5.4-.9,1.1-.9,1.8,0,.7.3,1.4.7,2.2,0,0,0,0,0,0-.2.6-.5,1.5-.8,2.5-.1.5-.3.9-.4,1.3-.1.4-.2.7-.3.8-.1.3,0,.6,0,.9.2.3.5.4.8.4h4.9c.3,0,.6-.2.7-.4s.2-.5.2-.8ZM43.6,15.8c0,0,.3-.2.6-.1.3,0,.5,0,.7.2h.1c0,.1,0,.3,0,.3,0,0,0,.2-.1.4,0,.2-.3.4-.5.7,0,0,0,0,0,0-.2,0-.3,0-.5,0-.3-.5-.4-.9-.4-1.1,0-.2,0-.2.1-.3ZM43.7,20c.1-.4.2-.7.3-.9,0,0,.2,0,.3,0s0,0,0,0c0,.2.1.4.2.6.2.6.5,1.5.7,2.2,0,.1,0,.3.1.4h-2.3c.2-.7.5-1.5.7-2.3ZM22.5,5.6l17.5,4.9-17.8,5L4.9,10.4l17.6-4.8ZM6.4,32.3c-.5,0-.9,0-1.1,0h-.1s0,0,0,0h0c0-.3-.1-.9-.1-1.8,0-.4,0-.7,0-1.1,0-.4,0-.7,0-.9,0-.2,0-.3.1-.3,0,0,0-.1.3-.2.2,0,.5-.1,1-.1.1,0,.3,0,.4,0,0,1.6,0,3.2,0,4h0c0,.2,0,.4,0,.6-.2,0-.4,0-.5,0ZM38.3,27.7c.3,0,.6,0,.7,0,.1,0,.2,0,.3.2,0,.1.1.4.2.8,0,.4.1.9.1,1.4,0,.7-.1,1.4-.3,1.7-.1.2-.2.3-.3.4-.1,0-.3.1-.6.1-.2,0-.4,0-.6,0,0-1.6,0-3.2,0-4.6.2,0,.4,0,.6,0ZM35.1,21.7c.2,0,.3.1.4.2,0,0,.2.2.2.4,0,0,0,.1,0,.3,0,.5,0,1.4,0,2.5,0,4.2-.2,11.7-.2,15.4,0,.6,0,1.1,0,1.5,0,.1-.1.2-.2.2,0,0-.3.1-.5.2-.7,0-1.8,0-3.3,0-4.6,0-12.3.1-17.5.1s-2.6,0-3.5,0c-.4,0-.8,0-1.1,0-.1,0-.2,0-.3,0h0c-.3-.1-.4-.2-.4-.2,0,0,0-.1-.2-.4,0-.1,0-.4,0-.8,0-.4,0-1,0-1.6,0-2.7,0-6.6,0-7.6h-1s1,0,1,0h0c0-1.6,0-5.6,0-7.8,0-.4,0-.7,0-1,0-.1,0-.2,0-.3h0c0,0,0,0,0,0,0-.2,0-.4,0-.5,0-.2,0-.2,0-.2,0,0,0,0,.3-.2,0,0,.3,0,.7,0,1.2,0,3.4-.1,6-.1,4.2,0,9.5,0,13.2,0,2,0,3.5,0,4.3,0,.7,0,1.3,0,1.7.2ZM32.5,19.7c-.8,0-2,0-3.4,0-3.7,0-9,0-13.2,0s-2.8,0-3.9,0v-5.3l10,2.9c.2,0,.4,0,.5,0l10-2.8v5.2Z" style="fill:#323437;"/><path d="M14.3,25.9c-4.9,1.2-3.3,8.6,1.7,7.6,5-1.1,3.3-8.7-1.7-7.6ZM15.3,31.4c-.9,0-1.5-.7-1.5-1.5s.7-1.5,1.5-1.5,1.5.7,1.5,1.5-.7,1.5-1.5,1.5Z" style="fill:#323437;"/><path d="M28.6,25.9c-4.9,1.2-3.3,8.6,1.7,7.6,5-1.1,3.3-8.7-1.7-7.6ZM29.6,31.4c-.9,0-1.5-.7-1.5-1.5s.7-1.5,1.5-1.5,1.5.7,1.5,1.5-.7,1.5-1.5,1.5Z" style="fill:#323437;"/><path d="M25.7,35.8c-.5.3-1.5.9-2.8,1.1-.2,0-.3,0-.5,0-1.9,0-3.3-1-3.6-1.3-.4-.3-1-.3-1.3.2-.3.4-.3,1,.2,1.3.5.4,2.2,1.7,4.8,1.7.2,0,.4,0,.7,0,1.8-.2,3.1-1,3.8-1.4.4-.3.5-.9.2-1.3s-.9-.5-1.3-.2Z" style="fill:#323437;"/><path d="M21.3,8.9c-.3-.3-.5-.6-.1-.7.3-.1.8-.1,1.2.1.3.1.5.3.7.4.2.1.3.2.3.2l1.3-.6s-.1-.1-.3-.3c-.2-.1-.4-.3-.8-.4-1.3-.6-2.8-.6-3.9,0-.9.4-.8.9-.4,1.3.3.4.6.7.2.8-.3.1-.8.1-1.3-.1-.3-.1-.6-.3-.8-.5-.2-.1-.3-.3-.3-.3l-1.3.6s.1.1.4.3c.2.1.4.3.7.4,1.5.7,3,.6,4.1.1,1.1-.5.8-1,.4-1.4Z" style="fill:#323437;"/><path d="M25.6,12.4c.7-.3.8-.7.5-1,.5,0,1.4,0,1.9-.3.8-.4,1-.8.2-1.3-.2-.1-.4-.2-.7-.3l-1.8-.8-6,2.7,1.8.8c1.3.6,2.8.7,4,.2ZM26,9.8l.5.2h.2c.2.3.2.4-.1.6-.4.2-.9.2-1.3,0l-.6-.2,1.2-.5ZM22.8,11.7l-.5-.2,1.3-.6.6.3h.2c.3.3.2.5-.2.6-.5.2-1,.2-1.5,0Z" style="fill:#323437;"/></svg>