<?xml version="1.0" encoding="UTF-8"?><svg id="a" xmlns="http://www.w3.org/2000/svg" width="2400" height="1000" viewBox="0 0 2400 1000"><path d="M272.9,493.5c-25.1-9.1-43.7-17.1-43.7-33.5s13.3-22.4,37.7-22.4,60.8,9.1,60.8,9.1v-58.9s-25.5-9.9-65.8-9.9c-65.8,0-100.8,35-100.8,86s29.7,62.7,60.1,75.3c27.8,11.8,52.5,19,52.5,37.7s-11.8,24.3-39.6,24.3-69.2-9.9-69.2-9.9v58.9s26.6,10.7,66.5,10.7c77.2,0,110.3-40.7,110.3-87.5s-35.4-66.9-68.8-79.9Z" style="fill:#e1e7ff;"/><polygon points="455.5 576.8 417.5 457 349.8 457 421.3 655.5 390.1 740.7 451.7 740.7 555.9 457 494.3 457 455.5 576.8" style="fill:#e1e7ff;"/><path d="M642.7,589v-182.9c0-30-14.1-45.3-47.9-45.3s-38.4,4.9-38.4,4.9v42.2h5.7c9.5,0,13.3,3,13.3,14.1v175.3c0,40.3,17.1,63.1,56.7,63.1s32.7-4.9,32.7-4.9v-45.6s-3.4.4-6.5.4c-11.4,0-15.6-4.9-15.6-21.3Z" style="fill:#e1e7ff;"/><path d="M759.9,589v-182.9c0-30-14.1-45.3-47.9-45.3s-38.4,4.9-38.4,4.9v42.2h5.7c9.5,0,13.3,3,13.3,14.1v175.3c0,40.3,17.1,63.1,56.7,63.1s32.7-4.9,32.7-4.9v-45.6s-3.4.4-6.5.4c-11.4,0-15.6-4.9-15.6-21.3Z" style="fill:#e1e7ff;"/><path d="M978.2,599.6v-68.1c0-55.1-27.4-79.9-98.1-79.9s-67.7,10.3-67.7,10.3v48.3s28.9-8.7,59.3-8.7,39.5,9.9,39.5,29.3v2.7l-36.1.4c-48.7.8-78.3,25.1-78.3,64.3s25.5,62.4,65.4,62.4,54-22.4,60.8-31.6c4.2,22,16.7,31.6,44.1,31.6s30.8-4.9,30.8-4.9v-41.8h-4.9c-9.9,0-14.8-2.3-14.8-14.1ZM911.3,596.6s-8.7,14.1-28.5,14.1-20.5-6.9-20.5-18.3,8.7-20.5,30.1-20.9l19-.4v25.5Z" style="fill:#e1e7ff;"/><path d="M1140.7,451.7c-37.3,0-51.7,25.5-51.7,25.5v-71.1c0-30-12.9-45.3-46.4-45.3s-39.5,4.9-39.5,4.9v42.2h4.2c10.3,0,14.8,2.7,14.8,14.1v233.5h51.3l6.5-19.8c11,14.1,27,24.7,54.4,24.7,52.5,0,85.6-46.4,85.6-108s-22.4-100.8-79.1-100.8ZM1116,607.6c-18.3,0-27-10.3-27-10.3v-74.9s9.1-14.4,27.4-14.4,34.2,17.9,34.2,48.3-12.2,51.3-34.6,51.3Z" style="fill:#e1e7ff;"/><path d="M1343.9,451.7c-61.6,0-102.3,39.2-102.3,104.2s40.3,104.6,102.3,104.6,102.7-39.2,102.7-104.6-40.3-104.2-102.7-104.2ZM1344.3,611.8c-22.8,0-33.5-17.9-33.5-56.3s10.7-54.8,33.5-54.8,33.1,16.3,33.1,54.8-11,56.3-33.1,56.3Z" style="fill:#e1e7ff;"/><path d="M1594.2,508.7v-51.7h-42.6v-49l-66.9,6.5v42.6h-24v51.7h24v74.5c0,52.5,23.6,77.2,73.8,77.2s35.4-4.9,35.4-4.9v-48.7s-6.8,1.5-14.4,1.5c-19.4,0-27.8-8.7-27.8-27.4v-72.3h42.6Z" style="fill:#e1e7ff;"/><path d="M1785.3,504.9c-3.5-.3-6.7-.4-9.8-.4-3.3,0-6.4.2-9.3.5-5.1.6-9.8,1.8-14,4.1-3.2,1.7-6.1,4-8.3,6.7-1.7,2.1-3.1,4.3-4.1,6.7-1.5,3.5-2.4,7.1-2.9,10.8-.5,3.7-.7,7.6-.7,11.6,0,4.2.2,8.6.4,13.3.3,6.2.5,11.4,1,16.4.2,1.9.4,3.7.8,5.5.3,1.6.8,3.2,1.4,4.8.5,1.4,1.2,2.8,2.1,4.2,1.5,2.4,3.6,4.7,6,6.4,1.8,1.3,3.8,2.3,5.8,3,3,1.1,6.1,1.7,9.5,2.1,3.4.4,7,.5,11.1.5,3.3,0,6.8,0,10.7-.3,6.1-.3,10.8-5.4,10.5-11.5s-5.4-10.8-11.5-10.5c-3.7.2-7,.2-9.8.2-3.1,0-5.8-.1-7.8-.3-1.8-.2-3.2-.4-4.1-.7-.8-.2-1.3-.4-1.6-.5-.1,0-.2,0-.2-.1h0s0,0,0,0h0c0,0,0,0,0,0h0c0,0,0,0,0,0l-.3.3.3-.3h0s-.3.3-.3.3l.3-.3-.3.2.3-.2h0s-.3.2-.3.2l.3-.2h0s0,0,0,0h0s0,0,0,0h0s-.2-.3-.4-1.1c-.2-.6-.4-1.5-.5-2.7-.2-1.7-.4-4.1-.6-6.9-.2-2.8-.3-6.2-.5-10-.2-4.6-.4-8.7-.4-12.2,0-4.7.3-8.4.9-10.8.4-1.9.9-3,1.4-3.7.3-.5.6-.8,1.1-1.2.3-.3.8-.5,1.4-.8,1-.4,2.5-.9,4.6-1.3,2.1-.3,4.8-.5,8.1-.5,2.4,0,5.1.1,8.2.3,6.1.4,11.3-4.1,11.8-10.2s-4.1-11.3-10.2-11.8Z" style="fill:#e1e7ff;"/><path d="M1816.6,365v75.5c0,6.1,4.9,11,11,11s11-4.9,11-11v-75.5c0-6.1-4.9-11-11-11s-11,4.9-11,11" style="fill:#e1e7ff;"/><path d="M2130.4,526.9c1.2,0,2.4,0,3.5,0,3.3,0,6.3-.1,8.9-.1,1.8,0,3.4,0,4.8.2,2.1.2,3.6.6,4.7,1.2.6.3,1,.6,1.5.9.5.4.9.8,1.4,1.5l7.4-5.6-8.1,4.6c.1.2.3.5.7,1l7.4-5.6-8.1,4.6,5.1-2.9-5.4,2.3s0,.2.3.6l5.1-2.9-5.4,2.3.6-.3-.6.2h0s.6-.2.6-.2l-.6.2s.1.4.3.9c.3.9.6,2.3,1,4,1.1,5.2,2.2,13.1,2.2,20.9,0,4-.3,7.9-.9,11.4-.5,2.6-1.2,5-2,6.9-.6,1.4-1.3,2.6-2,3.6-.5.7-1.1,1.3-1.7,1.8-.9.7-1.8,1.3-3,1.7-1.2.4-2.8.7-5,.7-2.4,0-5.5-.4-9.3-1.5-5.9-1.6-11.9,1.8-13.6,7.6-1.6,5.9,1.8,11.9,7.6,13.6,5.4,1.5,10.4,2.3,15.2,2.3,3.4,0,6.7-.4,9.8-1.2,2.7-.7,5.3-1.8,7.6-3.1,4.1-2.3,7.5-5.5,10-9,1.9-2.6,3.4-5.4,4.6-8.3,1.8-4.3,2.9-8.8,3.6-13.2.7-4.5.9-8.9.9-13.2,0-8.4-1-16.2-2.1-22.4-.6-3.1-1.2-5.8-1.8-8-.3-1.1-.6-2.1-1-3.1-.2-.5-.4-1-.7-1.6-.1-.3-.3-.6-.5-1-.2-.4-.5-.8-.9-1.4-2-2.7-4.5-5-7-6.8-1.9-1.3-4-2.4-6-3.2-3-1.2-6.1-1.8-8.9-2.2-2.8-.4-5.5-.4-8-.4-3.3,0-6.3.1-8.9.1-.9,0-1.8,0-2.6,0-6.1-.3-11.2,4.4-11.5,10.5s4.4,11.2,10.5,11.5Z" style="fill:#e1e7ff;"/><path d="M1791.6,573.7h11c0-.4,0-.8,0-1.3,0-4.4,0-10.6-.2-17.7-.1-10.7-.4-23.7-.5-36.5-.2-12.7-.3-25.2-.3-34.7s0-8.3.1-11.2c0-1.4,0-2.6.1-3.4,0-.4,0-.7,0-.9,0,0,0-.2,0-.2l-1.4-.2,1.4.2h0s-1.4-.2-1.4-.2l1.4.2-4.5-.7,4.5.8h0c0-.1-4.5-.8-4.5-.8l4.5.8c.4-2.4.7-4.4.9-5.6.2-1,.3-1.5.4-1.8,0-.2,0-.2.1-.3,0,0,.1-.2.7-.7.6-.5,1.7-1.2,3.5-2.2l-3.2-6.2,2.3,6.6c.2,0,.4-.2.9-.4l-3.2-6.2,2.3,6.6-1.2-3.5,1.1,3.5h.2c0,0-1.2-3.5-1.2-3.5l1.1,3.5-.5-1.5.4,1.6h0s-.5-1.6-.5-1.6l.4,1.6h0s0,0,0,0h0s0,0,0,0h0s.3,0,.8-.1c.8-.1,2.2-.3,3.8-.5,3-.3,7-.5,11.8-.7,7.2-.3,16.3-.5,26.6-.6,10.3-.1,21.9-.2,34.3-.2,48.7,0,109.4.8,152.5.8,11.9,0,22.5,0,31.2-.2,4.3,0,8.2-.2,11.5-.3,3.3-.1,6.1-.3,8.5-.5l-1.1-10.9-1,11c4.3.4,8.3.5,11.9.8,2.7.2,5.2.5,7.2.9,1.5.3,2.8.7,3.9,1.1.8.3,1.4.7,1.9,1,.8.5,1.4,1.1,1.9,1.9.6.8,1.2,1.9,1.7,3.7l4.3-1.2-4.4.8s0,0,.1.4l4.3-1.2-4.4.8s0,.4.1,1c0,1,.2,2.6.3,4.5.1,2.9.2,6.8.3,11.3,0,4.5,0,9.7,0,15.5,0,24.3-.5,58.3-.9,91.4-.5,33.1-.9,65.4-.9,86.4,0,4.3,0,8.1,0,11.4,0,3.3.1,6.1.2,8.3l11-.5-10.2-4c-.5,1.3-1,2.1-1.5,2.8-.4.5-.8.9-1.2,1.2-.7.5-1.5,1-2.6,1.5-1.2.5-2.7.9-4.5,1.2l1.8,10.9.9-11c-2-.2-4.3-.3-6.9-.4-8-.3-19.3-.4-33-.4-26.7,0-62.3.4-98.8.9-36.4.4-73.7.9-103.3.9-16,0-29.8-.1-39.9-.4-5.1-.2-9.2-.4-12.2-.6-1.5-.1-2.6-.2-3.3-.4-.4,0-.6-.1-.7-.1h0s-1.1,4.5-1.1,4.5l1.7-4.3c-.5-.2-.6-.2-.6-.2l-1.1,4.5,1.7-4.3c-1.7-.7-2.9-1.2-3.6-1.7-.5-.3-.8-.6-1-.7-.1-.1-.2-.3-.4-.4-.2-.3-.4-.7-.8-1.5-.3-.8-.7-1.9-1.1-3.4l-6.5,1.8,6.7-1c0,0,0-.2-.2-.8l-6.5,1.8,6.7-1-1.1.2,1.1-.2h0s-1.1.2-1.1.2l1.1-.2s0-.4,0-.9c0-.9-.1-2.3-.2-4-.2-5.2-.2-13.5-.2-23.1,0-15.5.2-34.7.3-51.3,0-8.3.2-16,.2-22.2,0-6.3.1-11.1.1-13.8h-11s-11,0-11,0c0,2.6,0,7.4-.1,13.6-.2,18.7-.6,50.2-.6,73.8s0,15.1.2,20.5c0,2.7.1,5,.2,6.9,0,.9.1,1.8.2,2.6,0,.4,0,.8.2,1.3,0,.5.1.9.4,1.7.7,2.5,1.4,4.9,2.5,7.2.8,1.8,1.8,3.5,3,5.1,1.8,2.5,4.2,4.6,6.7,6.2,2.5,1.6,5.1,2.8,7.9,3.9,1,.4,1.8.6,2.5.8,1.4.3,2.7.5,4.2.7,2.6.3,5.7.5,9.3.7,5.5.3,12.4.4,20.4.6,8,.1,17.1.2,27,.2,29.8,0,67.1-.4,103.5-.9,36.4-.4,72.1-.9,98.5-.9,9,0,17,0,23.5.2,3.3,0,6.2.1,8.6.2,2.5,0,4.5.2,6,.3.9,0,1.7,0,2.6-.1,2.7-.4,5.4-1.1,8-2,2-.7,3.9-1.6,5.8-2.7,2.8-1.7,5.5-3.9,7.7-6.5,2.2-2.7,4-5.7,5.3-9.1.6-1.4.8-3,.8-4.5,0-1.8-.1-4.4-.2-7.6,0-3.2,0-6.9,0-11.2,0-20.8.5-53,.9-86.1.5-33.1.9-67.1.9-91.7,0-9.5,0-17.6-.2-23.7,0-3.1-.2-5.7-.3-7.8,0-1.1-.2-2.1-.3-3,0-.5-.1-.9-.2-1.4,0-.5-.2-1-.4-1.7-.8-3.1-2-6-3.6-8.6-1.3-2.3-2.9-4.3-4.7-6.1-1.6-1.5-3.3-2.9-5-3.9-3.1-1.9-6.3-3.2-9.4-4.1-4.7-1.3-9.2-1.8-13.4-2.1-4.2-.3-8.2-.5-11.7-.8-.6,0-1.4,0-2,0-1.7.2-4.2.3-7.3.4-4.7.2-10.7.3-17.8.4-7.1,0-15.2.1-24.1.1-42.9,0-103.5-.8-152.5-.8-21.5,0-40.8.2-55.4.6-7.3.2-13.4.5-18.3,1-2.4.2-4.5.5-6.4.8-1,.2-1.9.3-2.8.6-.5.1-1,.3-1.5.5-.6.2-1.2.4-1.9.8-3.3,1.7-6.2,3.6-8.6,5.8-1.8,1.7-3.4,3.6-4.6,5.7-.9,1.5-1.5,3.1-2,4.5-.7,2.2-1,4.1-1.3,5.7-.3,1.6-.4,3-.7,4.4-.1.7-.2,1.3-.2,1.8,0,1-.2,2-.2,3.2,0,1.8-.1,3.9-.2,6.3,0,2.4,0,5.2,0,8.2,0,13,.3,30.9.5,47.8.1,8.4.3,16.6.4,23.7,0,7.1.2,13.2.2,17.4s0,.8,0,1.2h11Z" style="fill:#e1e7ff;"/><path d="M2182.4,475.5l10.1,4.3c.4-.9.7-1.8,1.1-2.7.7-1.8,1.4-4,2.1-6.4,1.3-4.2,2.8-9.3,4.4-14.5,2.3-7.9,4.7-16.3,6.7-22.7,1-3.2,1.9-6,2.6-7.8.3-.9.6-1.6.7-1.9h0c0,0,0,0,0,0l-4.1-2,3.9,2.4c.2-.3.2-.4.2-.4l-4.1-2,3.9,2.4-7.1-4.4,6.7,5c.2-.3.3-.5.4-.6l-7.1-4.4,6.7,5-7.8-5.8,6.9,6.9c.5-.5.7-.8.9-1.1l-7.8-5.8,6.9,6.9-6.4-6.4,5.1,7.5c.4-.2.8-.6,1.3-1.1l-6.4-6.4,5.1,7.5-3.8-5.7,2.6,6.4c.2,0,.6-.2,1.3-.7l-3.8-5.7,2.6,6.4-1.2-3.1,1,3.1s0,0,.2,0l-1.2-3.1,1,3.1-.4-1.1.3,1.1h0s-.4-1.1-.4-1.1l.3,1.1h0c0,0,.4,0,.8-.2.7-.1,1.6-.2,2.6-.3,1,0,2.1-.1,3.2-.1,1.5,0,2.8,0,3.6.2.2,0,.3,0,.4,0h0s0,0,0,0l1-4.4-1.5,4.2c.4.1.5.2.5.2l1-4.4-1.5,4.2,3-8.2-5,7.1c1.1.7,1.7.9,2,1.1l3-8.2-5,7.1,5.8-8.2-7.4,6.9c.3.4.8.8,1.6,1.4l5.8-8.2-7.4,6.9,6-5.5-6.9,4.3c.1.2.3.5.9,1.2l6-5.5-6.9,4.3,3.2-2-3.3,1.9v.2c0,0,3.3-2,3.3-2l-3.3,1.9.6-.3-.6.3h0s.6-.3.6-.3l-.6.3s.2.4.4.9c.4,1,1.1,2.6,1.7,4.5,1.2,3.4,2.7,7.8,4.2,12.6,2.3,7.2,4.7,15.1,6.7,21.9,1,3.4,1.9,6.4,2.6,8.9.3,1.2.6,2.3.9,3.2.2.9.4,1.6.5,2.1l10.7-2.5-.2-11-56.6.8.2,11,10.1,4.3-10.1-4.3.2,11,56.6-.8c3.3,0,6.5-1.6,8.5-4.2s2.8-6.1,2-9.3c-.2-.7-.3-1.4-.6-2.2-.8-3.2-2.2-8.1-3.9-13.8-2.5-8.6-5.7-18.8-8.5-27.3-1.4-4.2-2.7-8-3.9-11-.6-1.5-1.1-2.8-1.8-4.1-.3-.6-.7-1.3-1.2-2.1-.3-.4-.6-.8-1-1.4-.2-.3-.5-.6-.9-.9-.4-.4-.8-.8-1.4-1.2-1.2-.8-2-1.2-2.8-1.5-.7-.3-1.2-.4-1.7-.6-.9-.2-1.7-.4-2.5-.5-1.2-.2-2.3-.3-3.5-.4-1.2,0-2.4-.1-3.7-.1-2.9,0-5.8.2-8.7.6-1.4.2-2.9.5-4.4,1-.8.2-1.6.6-2.6,1-.5.2-1,.5-1.6.9-.6.4-1.2.9-1.9,1.6-.6.6-.9,1-1.2,1.4-.6.8-.9,1.3-1.1,1.8-.3.5-.5.9-.6,1.3-.4.8-.7,1.6-1,2.5-.6,1.6-1.2,3.5-1.9,5.6-1.2,3.7-2.5,8.2-4,13-2.1,7.1-4.4,14.9-6.3,21.6-1,3.3-1.9,6.3-2.7,8.8-.4,1.2-.8,2.3-1.1,3.2-.3.9-.6,1.6-.7,1.9-1.4,3.4-1.1,7.3,1,10.4s5.6,4.9,9.3,4.9l-.2-11Z" style="fill:#e1e7ff;"/><path d="M2226.8,422.1c4.9-4.9,8.6-9.7,11.2-14.6,1.3-2.4,2.3-4.9,3-7.4.7-2.5,1-5,1-7.6,0-2.2-.3-4.4-.8-6.5-1-3.7-2.8-7-5-9.6-1.7-2-3.6-3.7-5.7-5.1-3.1-2.1-6.4-3.6-9.8-4.5-3.4-1-6.9-1.5-10.5-1.5-3.4,0-6.8.4-10.1,1.4-2.5.7-5,1.8-7.3,3.2-1.8,1.1-3.4,2.4-5,3.9-2.3,2.3-4.3,5.1-5.6,8.3-1.3,3.2-2,6.8-2,10.4,0,4.7,1.1,9.6,3,14.6,2,5,4.9,10.2,8.8,15.6,3.5,4.9,10.4,6.1,15.3,2.6,4.9-3.5,6.1-10.4,2.6-15.3-3.1-4.3-5.1-8-6.3-11-1.2-2.9-1.5-5.1-1.5-6.4,0-1.3.2-1.9.4-2.3.2-.3.4-.6.7-.9.5-.4,1.3-1,2.5-1.4,1.2-.4,2.7-.7,4.3-.7,1.5,0,3.1.2,4.5.6,1.1.3,2,.7,2.7,1.1.6.3,1,.7,1.4,1,.5.5.8.9,1,1.2.2.4.3.7.3,1.3,0,.4,0,1-.3,1.8-.3,1.2-1,2.8-2.3,4.9-1.3,2.1-3.3,4.5-6.1,7.3-4.3,4.3-4.3,11.3,0,15.6,4.3,4.3,11.3,4.3,15.6,0Z" style="fill:#e1e7ff;"/><path d="M2075.4,366.3v72.8c0,6.1,4.9,11,11,11s11-4.9,11-11v-72.8c0-6.1-4.9-11-11-11s-11,4.9-11,11" style="fill:#e1e7ff;"/><path d="M2222.7,372.6l-1.9-44.3c-.2-4.8-3.4-8.9-8-10.1l-250.2-69.4c-1.9-.5-3.9-.5-5.8,0l-243.8,66.7c-4.7,1.3-8.1,5.6-8.1,10.5,0,4.9,3.2,9.3,7.9,10.6l241.1,69.9c2,.6,4.1.6,6,0l245.3-68.7c5.8-1.6,9.3-7.7,7.6-13.6-1.6-5.8-7.7-9.3-13.6-7.6l-242.3,67.9-200.6-58.2,203.3-55.6,239.5,66.5,1.5,36.3c.3,6.1,5.4,10.8,11.5,10.5s10.8-5.4,10.5-11.5Z" style="fill:#e1e7ff;"/><path d="M1865.1,505.7c-56.8,13.3-37.6,99.5,19.5,87.4,58.3-12.4,38.1-100.9-19.5-87.4ZM1877.2,569.2c-9.9,0-17.9-8-17.9-17.9s8-17.9,17.9-17.9,17.9,8,17.9,17.9-8,17.9-17.9,17.9Z" style="fill:#e1e7ff;"/><path d="M2030.1,505.7c-56.8,13.3-37.6,99.5,19.5,87.4,58.3-12.4,38.1-100.9-19.5-87.4ZM2042.2,569.2c-9.9,0-17.9-8-17.9-17.9s8-17.9,17.9-17.9,17.9,8,17.9,17.9-8,17.9-17.9,17.9Z" style="fill:#e1e7ff;"/><path d="M1903.5,635.3c1.3,1.1,3.7,2.8,6.8,4.9,4.7,3,11.4,6.7,19.6,9.6,8.2,2.9,18.2,5.1,29.3,5.1,2.5,0,5-.1,7.7-.3,10.6-1,19.7-3.8,27-7,7.3-3.2,12.8-6.8,16.4-9.3,4.9-3.5,6.1-10.4,2.6-15.3-3.5-4.9-10.4-6.1-15.3-2.6-2.7,1.9-6.9,4.6-12.4,7-5.5,2.4-12.3,4.5-20.2,5.2-1.9.2-3.8.3-5.7.3-5.5,0-10.6-.7-15.3-1.9-7-1.7-13-4.4-17.6-6.9-2.3-1.3-4.3-2.5-5.8-3.6-1.6-1.1-2.7-1.9-3.5-2.5-4.8-3.7-11.7-2.9-15.4,1.9s-2.9,11.7,1.9,15.4Z" style="fill:#e1e7ff;"/><path d="M1981.8,299.6c-2-1.3-5-3-8.9-4.7-15.4-6.7-32.2-6.4-44.8-.7-10.9,5-8.8,10.1-5,14.6,3.4,4.2,7.2,7.5,2.5,9.6-3.7,1.7-8.8,1.5-15.1-1.3-3.7-1.7-7-3.7-9.3-5.3-2.5-1.7-3.9-3-3.9-3l-14.7,6.6s1.2,1.4,4.1,3.5c1.9,1.3,4.6,2.9,8.1,4.6,17.4,8,35.2,6.8,47.2,1.5,12.6-5.6,8.9-11.2,4.4-16.1-3.5-3.6-5.8-6.4-1.7-8.3,3.8-1.7,8.7-1.2,14.3,1.3,3,1.3,5.8,3,7.9,4.4,2.4,1.6,4,2.9,4,2.9l14.9-6.6s-1.2-1.2-4-3.1Z" style="fill:#e1e7ff;"/><path d="M2026.9,320.1c-2-1.3-4.6-2.7-7.8-4l-20.8-9-69.5,30.8,21.2,9.6c15.3,6.9,32.5,7.8,46,1.9,8.5-3.7,9.4-8,5.5-11.5,6.3.8,15.7,0,22.5-3.1,9.5-4.2,11.4-9.2,2.8-14.7ZM1986.3,326.1l14.3-6.3,5.8,2.5c.9.4,1.7.8,2.3,1.2,2.7,1.8,2.4,3.5-1.4,5.2-4.9,2.2-9.9,2.2-14.5.2l-6.5-2.8ZM1957.4,338.8l15.6-6.9,6.9,3c1.1.5,2,1,2.7,1.4,3,2,2.3,3.9-1.8,5.6-5.2,2.3-11.5,2-16.9-.4l-6.4-2.8Z" style="fill:#e1e7ff;"/></svg>